<svg id="Capa_1" enable-background="new 0 0 512 512" height="512" viewBox="0 0 512 512" width="512" xmlns="http://www.w3.org/2000/svg"><g><g><path d="m390.324 459.549h-268.647c-14.419 0-26.108-11.689-26.108-26.108v-281.542c0-79.749 64.649-144.399 144.398-144.399h32.066c79.749 0 144.399 64.65 144.399 144.399v281.542c0 14.419-11.689 26.108-26.108 26.108z" fill="#365e7d"/><path d="m272.033 7.5h-30.287c79.749 0 144.399 64.65 144.399 144.399v281.542c0 14.419-11.689 26.108-26.108 26.108h30.287c14.419 0 26.108-11.689 26.108-26.108v-281.542c0-79.749-64.649-144.399-144.399-144.399z" fill="#2b4d66"/></g><path d="m301.771 345.031h-18.801-53.939-18.801c-37.413 0-67.742 30.329-67.742 67.742v83.1c0 4.765 3.863 8.628 8.628 8.628h209.77c4.765 0 8.628-3.863 8.628-8.628v-83.1c-.001-37.413-30.33-67.742-67.743-67.742z" fill="#bc95e2"/><path d="m301.771 345.031h-33.008c37.413 0 67.742 30.329 67.742 67.742v83.1c0 4.765-3.863 8.628-8.628 8.628h33.008c4.765 0 8.627-3.863 8.627-8.628v-83.1c.001-37.413-30.328-67.742-67.741-67.742z" fill="#ac80dd"/><g><path d="m274.881 295.08-36.221-2.131c-9.248 0-9.654 43.328-9.654 43.328v26.524c0 14.895 12.075 26.97 26.97 26.97 14.895 0 26.97-12.075 26.97-26.97v-26.524c-.001 0 1.183-41.197-8.065-41.197z" fill="#eaac9d"/></g><path d="m256.001 345.031c-71.877 0-130.145-58.268-130.145-130.144v-78.716c0-1.89 1.537-3.415 3.427-3.419 60.234-.111 113.469-8.738 160.955-39.423 1.419-.917 3.315-.624 4.332.725 21.444 28.468 50.691 36.346 88.165 38.514 1.911.111 3.411 1.68 3.411 3.595v78.724c-.001 71.876-58.269 130.144-130.145 130.144z" fill="#ffcbbe"/><path d="m382.734 132.568c-11.027-.638-21.336-1.778-30.949-3.783v86.102c0 66.052-49.209 120.606-112.965 129.014 5.622.742 11.355 1.13 17.18 1.13 71.877 0 130.144-58.268 130.144-130.144v-78.724c.001-1.914-1.499-3.484-3.41-3.595z" fill="#eaac9d"/><g><g><ellipse cx="204.726" cy="208.226" fill="#f6f9f9" rx="19.94" ry="17.148"/></g><g><ellipse cx="307.275" cy="208.226" fill="#f6f9f9" rx="19.94" ry="17.148"/></g></g><path d="m256 321.793c-14.122 0-25.57-11.448-25.57-25.57v-29.048c0-14.122 11.448-25.57 25.57-25.57 14.122 0 25.57 11.448 25.57 25.57v29.048c0 14.122-11.448 25.57-25.57 25.57z" fill="#da4a54"/><g><path d="m400.354 70.591c-2.22-3.498-6.856-4.529-10.352-2.312-3.497 2.221-4.532 6.854-2.312 10.352 13.896 21.889 21.242 47.225 21.242 73.269v281.543c0 10.26-8.348 18.607-18.607 18.607h-13.312v-39.276c0-36.7-26.419-67.329-61.234-73.914 46.039-22.29 77.865-69.483 77.865-123.972v-78.723c0-5.875-4.603-10.743-10.477-11.082-4.272-.247-8.429-.567-12.476-.984v-31.3c0-4.143-3.357-7.5-7.5-7.5s-7.5 3.357-7.5 7.5v29.152c-3.65-.693-7.191-1.517-10.631-2.487v-26.665c0-4.143-3.357-7.5-7.5-7.5s-7.5 3.357-7.5 7.5v21.087c-3.688-1.758-7.235-3.774-10.632-6.101v-14.986c0-4.143-3.357-7.5-7.5-7.5s-7.5 3.357-7.5 7.5v1.533c-1.319-1.522-2.61-3.118-3.871-4.792-3.355-4.45-9.675-5.556-14.392-2.51-40.715 26.31-89.104 38.099-156.896 38.223-6.02.01-10.916 4.907-10.916 10.919v41.63c0 4.143 3.357 7.5 7.5 7.5s7.5-3.357 7.5-7.5v-37.57c66.976-.58 115.951-12.54 157.68-38.527 4.22 5.184 8.704 9.646 13.395 13.514v29.466c0 4.143 3.357 7.5 7.5 7.5s7.5-3.357 7.5-7.5v-19.398c3.474 1.87 7.022 3.505 10.632 4.932v14.466c0 4.143 3.357 7.5 7.5 7.5s7.5-3.357 7.5-7.5v-9.702c3.514.873 7.061 1.607 10.631 2.222v7.48c0 4.143 3.357 7.5 7.5 7.5s7.5-3.357 7.5-7.5v-5.508c2.651.254 5.303.47 7.952.65v75.06c0 67.626-55.019 122.645-122.645 122.645s-122.645-55.019-122.645-122.645v-7.098c0-4.143-3.357-7.5-7.5-7.5s-7.5 3.357-7.5 7.5v7.098c0 54.489 31.827 101.683 77.866 123.972-34.814 6.585-61.234 37.214-61.234 73.914v39.276h-13.312c-10.261 0-18.608-8.348-18.608-18.607v-281.544c.003-75.486 61.416-136.898 136.903-136.898h32.065c37.136 0 71.896 14.631 97.875 41.197 2.896 2.96 7.644 3.016 10.606.118 2.961-2.896 3.014-7.645.118-10.606-28.824-29.476-67.393-45.709-108.599-45.709h-32.065c-83.758 0-151.9 68.142-151.9 151.898v281.543c0 18.531 15.077 33.607 33.608 33.607h13.312v28.823c0 8.893 7.234 16.128 16.127 16.128h139.646c4.143 0 7.5-3.357 7.5-7.5s-3.357-7.5-7.5-7.5h-139.646c-.621 0-1.127-.506-1.127-1.128v-83.1c0-33.218 27.024-60.242 60.242-60.242h11.275v10.271c0 19.007 15.463 34.47 34.47 34.47s34.47-15.463 34.47-34.47v-10.27h11.325c33.218 0 60.242 27.024 60.242 60.242v83.1c0 .622-.506 1.128-1.128 1.128h-40.137c-4.143 0-7.5 3.357-7.5 7.5s3.357 7.5 7.5 7.5h40.137c8.893 0 16.128-7.235 16.128-16.128v-28.823h13.312c18.531 0 33.607-15.076 33.607-33.607v-281.544c.001-28.895-8.153-57.011-23.577-81.307zm-144.378 311.68c-10.735 0-19.47-8.734-19.47-19.47v-11.657c6.371.907 12.878 1.387 19.495 1.387 6.6 0 13.09-.477 19.444-1.38v11.65c0 10.735-8.734 19.47-19.469 19.47z"/><path d="m204.727 183.577c-15.13 0-27.439 11.058-27.439 24.648s12.31 24.648 27.439 24.648 27.439-11.058 27.439-24.648-12.31-24.648-27.439-24.648zm0 34.297c-6.743 0-12.439-4.418-12.439-9.648s5.696-9.648 12.439-9.648 12.439 4.418 12.439 9.648-5.696 9.648-12.439 9.648z"/><path d="m279.835 208.226c0 13.591 12.31 24.648 27.439 24.648s27.439-11.058 27.439-24.648-12.31-24.648-27.439-24.648-27.439 11.057-27.439 24.648zm27.439-9.649c6.743 0 12.439 4.418 12.439 9.648s-5.696 9.648-12.439 9.648-12.439-4.418-12.439-9.648 5.696-9.648 12.439-9.648z"/><path d="m256 234.106c-18.234 0-33.069 14.835-33.069 33.069v29.048c0 18.235 14.835 33.07 33.069 33.07 18.235 0 33.07-14.835 33.07-33.07v-29.048c0-18.234-14.835-33.069-33.07-33.069zm18.07 62.118c0 9.964-8.106 18.07-18.07 18.07s-18.069-8.106-18.069-18.07v-29.048c0-9.964 8.105-18.069 18.069-18.069s18.07 8.105 18.07 18.069z"/><path d="m206.947 158.734c-9.984 6.873-19.127 2.556-19.654 2.295-3.651-1.886-8.143-.486-10.07 3.151-1.939 3.66-.545 8.199 3.115 10.139.413.219 6.365 3.288 14.809 3.288 5.899 0 13.016-1.499 20.305-6.516 3.412-2.349 4.274-7.019 1.927-10.431-2.351-3.411-7.019-4.273-10.432-1.926z"/><path d="m316.854 177.607c8.442 0 14.396-3.069 14.809-3.288 3.66-1.939 5.095-6.5 3.155-10.16s-6.438-5.074-10.099-3.136c-.389.193-9.597 4.643-19.666-2.289-3.413-2.348-8.082-1.485-10.431 1.927-2.348 3.412-1.485 8.082 1.927 10.431 7.291 5.016 14.406 6.515 20.305 6.515z"/></g></g></svg>